HIERARCHY
ROOT Hips
{
	OFFSET 0.000000 0.000000 0.000000
	CHANNELS 6 Xposition Yposition Zposition Xrotation Yrotation Zrotation
	JOINT LeftUpLeg_virtual
	{
		OFFSET 0.000000 0.000000 0.000000
		CHANNELS 3 Xrotation Yrotation Zrotation
		JOINT LeftUpLeg
		{
			OFFSET 11.394100 -6.187798 -0.413800
			CHANNELS 3 Xrotation Yrotation Zrotation
			JOINT LeftLeg
			{
				OFFSET 0.430247 -32.302673 3.732800
				CHANNELS 3 Xrotation Yrotation Zrotation
				JOINT LeftFoot
				{
					OFFSET -0.430247 -48.264931 -6.423300
					CHANNELS 3 Xrotation Yrotation Zrotation
					JOINT LeftToeBase
					{
						OFFSET 4.230900 -16.068199 23.438400
						CHANNELS 3 Xrotation Yrotation Zrotation
						JOINT LeftToe_End
						{
							OFFSET 4.510700 0.695400 19.974600
							CHANNELS 3 Xrotation Yrotation Zrotation
							End Site
							{
								OFFSET 0 0 0
							}
						}
					}
				}
			}
		}
	}
	JOINT RightUpLeg_virtual
	{
		OFFSET 0.000000 0.000000 0.000000
		CHANNELS 3 Xrotation Yrotation Zrotation
		JOINT RightUpLeg
		{
			OFFSET -11.333700 -6.187798 -0.413800
			CHANNELS 3 Xrotation Yrotation Zrotation
			JOINT RightLeg
			{
				OFFSET -0.430392 -32.302628 3.733000
				CHANNELS 3 Xrotation Yrotation Zrotation
				JOINT RightFoot
				{
					OFFSET 0.430392 -48.264973 -6.423500
					CHANNELS 3 Xrotation Yrotation Zrotation
					JOINT RightToeBase
					{
						OFFSET -4.230900 -16.068199 23.438400
						CHANNELS 3 Xrotation Yrotation Zrotation
						JOINT RightToe_End
						{
							OFFSET -4.510700 0.695400 19.974600
							CHANNELS 3 Xrotation Yrotation Zrotation
							End Site
							{
								OFFSET 0 0 0
							}
						}
					}
				}
			}
		}
	}
	JOINT Spine_virtual
	{
		OFFSET 0.000000 0.000000 0.000000
		CHANNELS 3 Xrotation Yrotation Zrotation
		JOINT Spine
		{
			OFFSET -0.002400 12.777504 0.315300
			CHANNELS 3 Xrotation Yrotation Zrotation
			JOINT Spine1
			{
				OFFSET -0.002067 5.816869 0.032633
				CHANNELS 3 Xrotation Yrotation Zrotation
				JOINT Spine1_split
				{
					OFFSET -0.002067 5.816869 0.032633
					CHANNELS 3 Xrotation Yrotation Zrotation
					JOINT Spine2
					{
						OFFSET -0.002067 5.816869 0.032633
						CHANNELS 3 Xrotation Yrotation Zrotation
						JOINT Neck_virtual
						{
							OFFSET 0.000000 0.000000 0.000000
							CHANNELS 3 Xrotation Yrotation Zrotation
							JOINT Neck
							{
								OFFSET -0.003700 21.199493 -0.826900
								CHANNELS 3 Xrotation Yrotation Zrotation
								JOINT Head
								{
									OFFSET 0.000000 20.442200 4.834800
									CHANNELS 3 Xrotation Yrotation Zrotation
									JOINT HeadTop_End
									{
										OFFSET 0.000000 34.668396 4.968400
										CHANNELS 3 Xrotation Yrotation Zrotation
										End Site
										{
											OFFSET 0 0 0
										}
									}
								}
							}
						}
						JOINT LeftShoulder_virtual
						{
							OFFSET 0.000000 0.000000 0.000000
							CHANNELS 3 Xrotation Yrotation Zrotation
							JOINT LeftShoulder
							{
								OFFSET 3.288150 8.794197 -1.372250
								CHANNELS 3 Xrotation Yrotation Zrotation
								JOINT LeftShoulder_split
								{
									OFFSET 3.288150 8.794197 -1.372250
									CHANNELS 3 Xrotation Yrotation Zrotation
									JOINT LeftArm
									{
										OFFSET 11.953299 -2.279007 -0.146200
										CHANNELS 3 Xrotation Yrotation Zrotation
										JOINT LeftForeArm
										{
											OFFSET 18.448900 0.000000 0.000000
											CHANNELS 3 Xrotation Yrotation Zrotation
											JOINT LeftHand
											{
												OFFSET 29.527798 0.000000 0.000000
												CHANNELS 3 Xrotation Yrotation Zrotation
												End Site
												{
													OFFSET 0 0 0
												}
											}
										}
									}
								}
							}
						}
						JOINT RightShoulder_virtual
						{
							OFFSET 0.000000 0.000000 0.000000
							CHANNELS 3 Xrotation Yrotation Zrotation
							JOINT RightShoulder
							{
								OFFSET -3.249400 8.794197 -1.372250
								CHANNELS 3 Xrotation Yrotation Zrotation
								JOINT RightShoulder_split
								{
									OFFSET -3.249400 8.794197 -1.372250
									CHANNELS 3 Xrotation Yrotation Zrotation
									JOINT RightArm
									{
										OFFSET -11.953299 -2.279007 -0.146200
										CHANNELS 3 Xrotation Yrotation Zrotation
										JOINT RightForeArm
										{
											OFFSET -18.448900 0.000000 0.000000
											CHANNELS 3 Xrotation Yrotation Zrotation
											JOINT RightHand
											{
												OFFSET -29.527802 0.000000 0.000000
												CHANNELS 3 Xrotation Yrotation Zrotation
												End Site
												{
													OFFSET 0 0 0
												}
											}
										}
									}
								}
							}
						}
					}
				}
			}
		}
	}
}
MOTION
Frames: 9
Frame Time: 0.03333333
-0.301208 89.715218 0.171852 0.000000 0.000000 0.000000 3.020390 -58.275140 6.520073 -38.838061 8.056833 26.428167 42.581694 -7.215659 -9.677838 -5.193628 -2.782060 -10.043301 -0.327607 1.238434 0.837236 0.000000 0.000000 0.000000 3.020390 -58.275140 6.520073 -36.667386 -6.170302 -25.574776 47.503597 1.669124 -7.598153 -14.419477 3.655504 21.028489 -0.322738 -0.997372 -0.837176 0.000000 0.000000 0.000000 3.020390 -58.275140 6.520073 11.191477 0.139507 -2.738812 8.434601 0.027697 -5.592320 0.000000 0.000000 0.000000 0.000000 0.000000 0.000000 8.457034 0.027840 -5.591846 -21.556845 25.063183 12.062629 -0.293119 25.465698 -3.208474 0.000000 0.000000 0.000000 8.457034 0.027840 -5.591846 -6.221665 -11.503854 -4.023823 0.000000 0.000000 0.000000 -23.062129 9.568613 -36.639617 0.046129 -43.169268 -0.011174 0.000000 0.000000 0.000000 8.457034 0.027840 -5.591846 -5.488246 10.658303 2.466529 0.000000 0.000000 0.000000 -41.473814 -26.755531 30.078951 -155.044597 68.136827 156.691588 0.000000 0.000000 0.000000 
-0.675905 89.531883 0.512066 0.000000 0.000000 0.000000 -0.227792 -58.926562 3.270415 -37.221830 7.920877 27.448355 43.613019 -7.541301 -9.877218 -6.161519 -2.682470 -10.108437 -0.327572 1.238453 0.837252 0.000000 0.000000 0.000000 -0.227792 -58.926562 3.270415 -35.010501 -6.894957 -25.579864 47.832672 2.783292 -7.552267 -14.935810 3.594460 20.784402 -0.322745 -0.997419 -0.837151 0.000000 0.000000 0.000000 -0.227792 -58.926562 3.270415 10.330589 -0.452074 -1.936783 6.356272 -1.115940 -4.166069 0.000000 0.000000 0.000000 0.000000 0.000000 0.000000 6.388323 -1.004154 -4.289060 -6.596748 24.682770 10.020962 5.771836 24.455043 -11.198035 0.000000 0.000000 0.000000 6.388323 -1.004154 -4.289060 -7.444598 -11.224857 -7.938099 0.000000 0.000000 0.000000 -17.825472 12.833947 -32.921184 9.087187 -48.058311 1.764695 0.000000 0.000000 0.000000 6.388323 -1.004154 -4.289060 -5.983474 8.827083 3.075375 0.000000 0.000000 0.000000 -38.745880 -19.254836 28.391997 -159.791347 70.132546 163.700100 0.000000 0.000000 0.000000 
-2.721784 89.748947 1.853951 0.000000 0.000000 0.000000 -3.431842 -58.001481 0.334528 -34.083177 8.399211 27.800577 43.436769 -9.085974 -9.967111 -7.964949 -2.527122 -10.073189 -0.340136 1.238469 0.837689 0.000000 0.000000 0.000000 -3.431842 -58.001481 0.334528 -30.504608 -8.648313 -26.209954 46.620020 2.951837 -7.425199 -16.712259 3.137362 21.310547 -0.318290 -0.977524 -0.825193 0.000000 0.000000 0.000000 -3.431842 -58.001481 0.334528 8.759314 -1.285516 -0.366166 2.764290 -2.740639 -1.391101 0.000000 0.000000 0.000000 0.000000 0.000000 0.000000 2.788126 -2.507216 -1.672031 15.370639 22.706216 8.357472 14.968609 21.310265 -22.360352 0.000000 0.000000 0.000000 2.788126 -2.507216 -1.672031 -9.118291 -10.823746 -14.560199 0.000000 0.000000 0.000000 -11.795157 16.529095 -30.545706 20.280466 -54.742440 5.702349 0.000000 0.000000 0.000000 2.788126 -2.507216 -1.672031 -6.841711 5.353255 4.471324 0.000000 0.000000 0.000000 -32.053142 -9.337535 22.260558 -172.524431 63.944026 -178.458035 0.000000 0.000000 0.000000 
-6.089225 92.789139 3.758118 0.000000 0.000000 0.000000 -6.457716 -54.456265 -1.955759 -24.507552 8.447662 21.714399 35.515109 -6.913719 -5.359900 -7.901736 -2.094597 -12.469257 -0.373057 1.237828 0.838018 0.000000 0.000000 0.000000 -6.457716 -54.456265 -1.955759 -18.637010 -14.276945 -26.095105 35.879759 1.414769 -6.355397 -16.165063 2.432255 21.873799 -0.314787 -0.363982 -0.834012 0.000000 0.000000 0.000000 -6.457716 -54.456265 -1.955759 7.431604 -1.365876 1.104585 0.073104 -2.889674 1.174775 0.000000 0.000000 0.000000 0.000000 0.000000 0.000000 0.080100 -2.757800 0.936522 21.689315 18.210823 12.162273 19.385081 17.959793 -23.595691 0.000000 0.000000 0.000000 0.080100 -2.757800 0.936522 -10.108035 -9.688273 -18.765856 0.000000 0.000000 0.000000 -8.320133 7.001494 -36.207495 28.914353 -50.052644 8.962386 0.000000 0.000000 0.000000 0.080100 -2.757800 0.936522 -7.484666 2.271112 6.303831 0.000000 0.000000 0.000000 -27.690845 -13.700335 14.464893 -176.945080 47.614051 -170.179108 0.000000 0.000000 0.000000 
-7.273537 94.918968 5.878956 0.000000 0.000000 0.000000 -8.919500 -49.962345 -3.506572 -17.536048 6.052255 15.219277 29.911311 -4.675724 -0.805315 -7.195841 -1.954720 -13.821149 -0.412747 1.237135 0.838709 0.000000 0.000000 0.000000 -8.919500 -49.962345 -3.506572 -8.048487 -19.106312 -25.579176 25.445137 -1.882727 -5.233712 -13.054240 1.383824 23.016149 -0.679096 0.580568 -0.390462 0.000000 0.000000 0.000000 -8.919500 -49.962345 -3.506572 6.234083 -0.747433 2.042187 -1.612071 -1.688423 2.795860 0.000000 0.000000 0.000000 0.000000 0.000000 0.000000 -1.592654 -1.721213 2.733279 12.858809 11.157503 18.657941 20.106858 13.634961 -18.134735 0.000000 0.000000 0.000000 -1.592654 -1.721213 2.733279 -10.203479 -7.487113 -19.427194 0.000000 0.000000 0.000000 -1.835907 -3.336914 -41.100885 42.681350 -49.814991 23.002119 0.000000 0.000000 0.000000 -1.592654 -1.721213 2.733279 -7.724121 1.185875 8.419433 0.000000 0.000000 0.000000 -35.405785 -30.168321 8.732743 -167.328105 35.586935 -174.222225 0.000000 0.000000 0.000000 
-6.586075 94.617004 8.009327 0.000000 0.000000 0.000000 -10.779523 -45.376843 -4.383113 -17.410661 2.067179 9.661165 33.163628 -2.463402 3.092789 -8.765366 -2.481597 -14.179692 -0.391196 1.237544 0.838339 0.000000 0.000000 0.000000 -10.779523 -45.376843 -4.383113 -6.797486 -19.713369 -26.810338 28.366775 -7.259102 -6.164962 -10.913994 0.157895 24.356490 -4.849073 2.635858 1.203580 0.000000 0.000000 0.000000 -10.779523 -45.376843 -4.383113 5.682555 -0.269816 2.459206 -2.736501 -0.813919 3.565339 0.000000 0.000000 0.000000 0.000000 0.000000 0.000000 -2.714056 -0.818254 3.538949 0.947678 5.908275 20.202783 21.407254 10.737615 -18.813027 0.000000 0.000000 0.000000 -2.714056 -0.818254 3.538949 -9.926186 -5.678113 -18.446539 0.000000 0.000000 0.000000 8.274697 -5.953046 -36.263851 53.769606 -62.255856 42.375890 0.000000 0.000000 0.000000 -2.714056 -0.818254 3.538949 -8.040427 2.952626 10.767430 0.000000 0.000000 0.000000 -62.005058 -44.397066 -8.061996 -142.863788 31.338718 175.531463 0.000000 0.000000 0.000000 
-6.140082 94.661812 10.135021 0.000000 0.000000 0.000000 -12.152728 -41.173429 -4.830180 -16.434446 -0.594006 5.041685 34.397861 -0.959314 6.113199 -9.744758 -3.236389 -14.195340 -0.378938 1.237674 0.838138 0.000000 0.000000 0.000000 -12.152728 -41.173429 -4.830180 -4.266008 -20.728395 -27.151622 28.973082 -11.497828 -7.237457 -8.585148 -0.668338 25.119581 -6.950911 3.415306 3.076229 0.000000 0.000000 0.000000 -12.152728 -41.173429 -4.830180 5.587671 -0.000451 2.947962 -3.263137 -0.366692 4.424598 0.000000 0.000000 0.000000 0.000000 0.000000 0.000000 -3.239903 -0.358299 4.410455 -11.556625 4.891706 18.843992 22.504065 11.377297 -23.639017 0.000000 0.000000 0.000000 -3.239903 -0.358299 4.410455 -9.651718 -4.961493 -16.130482 0.000000 0.000000 0.000000 13.270982 -4.625610 -31.214279 54.053410 -69.442014 45.990580 0.000000 0.000000 0.000000 -3.239903 -0.358299 4.410455 -8.678213 4.467827 13.076416 0.000000 0.000000 0.000000 -94.908347 -49.308929 -30.503413 -117.029021 28.907300 164.293165 0.000000 0.000000 0.000000 
-5.903887 95.448784 12.206188 0.000000 0.000000 0.000000 -13.153821 -37.597224 -5.011580 -14.000877 -1.930309 2.440871 33.163403 -3.077727 6.800828 -9.620850 -2.199824 -12.525921 -0.532048 1.409187 0.836864 0.000000 0.000000 0.000000 -13.153821 -37.597224 -5.011580 -1.007147 -20.909499 -26.645174 28.314387 -13.807428 -8.384044 -5.212082 -0.798091 24.961051 -8.377013 2.280081 5.856106 0.000000 0.000000 0.000000 -13.153821 -37.597224 -5.011580 5.571224 0.060226 3.273176 -3.510217 -0.283997 5.135365 0.000000 0.000000 0.000000 0.000000 0.000000 0.000000 -3.485963 -0.267434 5.131837 -21.699431 6.574572 18.497037 23.654308 14.120165 -28.345569 0.000000 0.000000 0.000000 -3.485963 -0.267434 5.131837 -9.726505 -5.021083 -14.085389 0.000000 0.000000 0.000000 14.230599 -2.524737 -28.794998 42.414799 -68.466868 32.693728 0.000000 0.000000 0.000000 -3.485963 -0.267434 5.131837 -9.554218 4.866184 15.254843 0.000000 0.000000 0.000000 -118.342426 -50.445861 -44.977291 -99.897916 32.265387 151.213353 0.000000 0.000000 0.000000 
-5.730206 96.289513 14.166218 0.000000 0.000000 0.000000 -13.869670 -34.749318 -5.020567 -12.813193 -2.548917 0.931565 33.045364 -3.968915 6.741827 -8.579063 -3.150644 -10.787521 -2.390555 2.120099 0.857751 0.000000 0.000000 0.000000 -13.869670 -34.749318 -5.020567 0.928439 -18.844893 -26.377260 30.130413 -10.568889 -9.695282 -1.745215 -0.650193 24.411832 -14.835084 -5.164026 9.720868 0.000000 0.000000 0.000000 -13.869670 -34.749318 -5.020567 5.450221 -0.023070 3.323324 -3.671762 -0.439464 5.569361 0.000000 0.000000 0.000000 0.000000 0.000000 0.000000 -3.645501 -0.412427 5.579371 -28.674128 8.332627 19.714457 24.218965 16.973420 -31.000811 0.000000 0.000000 0.000000 -3.645501 -0.412427 5.579371 -10.088779 -5.617178 -12.910926 0.000000 0.000000 0.000000 12.966234 -0.288117 -28.711008 38.158652 -60.860114 24.016815 0.000000 0.000000 0.000000 -3.645501 -0.412427 5.579371 -10.434658 4.698411 18.362031 0.000000 0.000000 0.000000 -122.039880 -49.034048 -43.157469 -87.234794 37.761555 132.368629 0.000000 0.000000 0.000000 
